:SAMPLES-PER-SECOND 30
:FULLY-SPECIFIED
:DEGREES
326
root  -83.5161 41.1955 2.64545 -163.499 -82.3372 161.366
RightUpLeg  3.02495 -7.97721 -4.88524
RightLeg  5.65089 6.77648 -0.413806
RightFoot  -5.26107 0.00100039 -0.692016
RightToes  -6.40286e-010 0 -3.6325e-017
Spine  -5.2491 1.32147 -1.09305
Spine1  7.54747 1.03293 1.98132
HEad  -16.6529 -26.4757 2.00798
LeftShoulder1  0.0846762 3.11305 -14.7586
LeftArm  -42.3613 9.73909 -13.8641
LeftForeArm  31.2602 -20.8596 -1.78373
LeftHand  -0.112524 11.9066 -0.793883
RightShoulder  -0.0128508 -3.56967 8.03424
RightArm  -22.1655 -1.51267 5.76283
RightForeArm  14.7934 25.125 4.61284
RightHand  -0.18173 9.27073 -1.83264
LeftUpLeg  1.8422 5.7729 1.19402
LeftLeg  1.41715 3.48618 0.414135
LeftFoot  -0.425111 -0.0700457 0.760079
LeftToes  1.32783e-010 1.73515e-011 1.59258e-011
327
root  -83.5047 41.1977 2.46587 -165.851 -81.0563 163.669
RightUpLeg  2.90718 -7.76294 -4.58661
RightLeg  5.62655 7.84435 -0.480885
RightFoot  -5.20814 0.020237 -1.03071
RightToes  -6.40286e-010 0 -3.6325e-017
Spine  -4.93789 1.48452 -0.0608087
Spine1  7.65557 1.42559 0.831776
HEad  -17.6736 -27.7929 2.45279
LeftShoulder1  0.109962 3.02258 -15.9774
LeftArm  -32.0802 7.90088 -15.4533
LeftForeArm  17.0092 -15.6052 1.42625
LeftHand  -0.0639184 9.63054 -0.297368
RightShoulder  -0.0200624 -3.60091 9.71336
RightArm  -21.6517 0.964441 8.85041
RightForeArm  13.3717 22.4021 3.85907
RightHand  -0.294699 9.07698 -2.74739
LeftUpLeg  2.26397 5.8889 1.43683
LeftLeg  1.07711 4.65583 0.470312
LeftFoot  -0.327037 -0.0331805 0.36644
LeftToes  1.32783e-010 1.73515e-011 1.59258e-011
328
root  -83.4825 41.1897 2.26347 -168.095 -79.9602 165.961
RightUpLeg  2.65174 -7.41272 -4.07877
RightLeg  5.76635 8.53961 -0.499688
RightFoot  -5.27218 0.0278421 -1.19739
RightToes  -6.40286e-010 0 -3.6325e-017
Spine  -4.72878 1.4517 0.307037
Spine1  7.76715 1.41717 0.610601
HEad  -18.7041 -28.4338 2.8792
LeftShoulder1  0.148447 2.89438 -17.7461
LeftArm  -25.1896 6.87004 -17.2819
LeftForeArm  9.18184 -11.4469 1.97619
LeftHand  -0.0334247 9.51314 0.419035
RightShoulder  -0.0383943 -3.69155 11.588
RightArm  -20.0494 3.79582 12.4393
RightForeArm  11.1223 19.9352 2.49573
RightHand  -0.192826 8.41443 -2.00517
LeftUpLeg  2.4311 6.05419 1.85452
LeftLeg  1.03467 5.56343 0.583658
LeftFoot  -0.383288 0.00890518 -0.0808312
LeftToes  1.32783e-010 1.73515e-011 1.59258e-011
329
root  -83.4762 41.1685 2.06379 -169.65 -78.779 167.677
RightUpLeg  2.17589 -7.12137 -3.63212
RightLeg  6.15403 9.347 -0.455807
RightFoot  -5.64873 0.0184089 -1.14286
RightToes  -6.40286e-010 0 -3.6325e-017
Spine  -4.86818 1.43902 0.679078
Spine1  8.13586 1.4157 0.498537
HEad  -19.6899 -29.0421 2.79185
LeftShoulder1  0.153667 2.91769 -19.6203
LeftArm  -24.3015 5.84294 -20.6444
LeftForeArm  10.6338 -8.23134 2.44962
LeftHand  0.0146937 10.6485 1.57114
RightShoulder  -0.0609366 -3.76302 13.9811
RightArm  -16.6578 6.11132 15.6997
RightForeArm  9.25688 18.2285 1.62887
RightHand  -0.147787 7.54492 -1.68432
LeftUpLeg  2.34535 6.35939 2.36265
LeftLeg  1.39589 6.2732 0.484979
LeftFoot  -0.898334 0.0982722 -1.01087
LeftToes  1.32783e-010 1.73515e-011 1.59258e-011
330
root  -83.4818 41.1427 1.87932 -170.942 -77.7512 168.819
RightUpLeg  2.02069 -7.03122 -3.33426
RightLeg  6.70098 10.2252 -0.269708
RightFoot  -5.83836 0.0391784 -1.635
RightToes  -6.40286e-010 0 -3.6325e-017
Spine  -4.57849 1.28917 1.67829
Spine1  8.35146 1.49845 -0.600094
HEad  -20.7967 -30.7068 2.77476
LeftShoulder1  0.171844 2.88283 -21.2156
LeftArm  -23.3128 7.35883 -24.1317
LeftForeArm  15.736 -9.37265 1.63978
LeftHand  -0.0287415 10.0683 0.660428
RightShoulder  -0.148802 -4.11565 17.0017
RightArm  -9.71796 8.46775 18.8388
RightForeArm  7.54595 15.5004 1.08127
RightHand  -0.0296766 7.39681 -0.639737
LeftUpLeg  2.43745 6.64312 2.80154
LeftLeg  2.0427 7.04189 0.491134
LeftFoot  -0.979801 0.0788755 -0.819238
LeftToes  1.32783e-010 1.73515e-011 1.59258e-011
331
root  -83.5108 41.1043 1.68567 -172.976 -76.5867 170.74
RightUpLeg  1.88111 -6.65665 -2.69368
RightLeg  7.20191 10.9179 -0.304681
RightFoot  -5.99571 0.0613953 -2.18456
RightToes  -6.40286e-010 0 -3.6325e-017
Spine  -4.31215 1.14305 2.91386
Spine1  8.34351 1.54646 -1.51036
HEad  -21.8388 -31.7787 2.55183
LeftShoulder1  0.0833495 3.21657 -23.2265
LeftArm  -25.4316 9.29275 -28.4888
LeftForeArm  23.2044 -12.6158 1.55666
LeftHand  -0.0255103 8.43022 0.74053
RightShoulder  -0.204211 -4.2565 19.1048
RightArm  -6.29539 10.2468 23.8876
RightForeArm  10.0762 11.6171 0.636019
RightHand  0.021565 7.88671 -0.182816
LeftUpLeg  2.41921 7.14293 3.60094
LeftLeg  3.11209 7.48357 0.378532
LeftFoot  -1.81673 0.136056 -1.49217
LeftToes  1.32783e-010 1.73515e-011 1.59258e-011
332
root  -83.5442 41.0415 1.48512 -174.035 -75.6014 171.296
RightUpLeg  2.10464 -6.78098 -2.53143
RightLeg  7.96035 12.0189 -0.00608997
RightFoot  -6.60282 0.0615954 -2.57009
RightToes  -6.40286e-010 0 -3.6325e-017
Spine  -4.62487 1.01772 3.86743
Spine1  10.0374 1.64222 -2.20148
HEad  -23.2759 -33.0818 2.13903
LeftShoulder1  -0.132403 3.91587 -25.936
LeftArm  -26.5438 7.6363 -32.602
LeftForeArm  29.0866 -12.5339 1.45535
LeftHand  -0.0569085 8.21685 -0.316964
RightShoulder  -0.440666 -5.01203 22.5207
RightArm  -1.78931 12.7892 27.268
RightForeArm  10.816 7.7918 1.84102
RightHand  -0.0235855 7.77924 -0.58701
LeftUpLeg  2.61425 7.68514 4.19868
LeftLeg  4.52063 7.98052 0.315364
LeftFoot  -2.21428 0.108813 -1.21905
LeftToes  1.32783e-010 1.73515e-011 1.59258e-011
333
root  -83.5913 40.9589 1.29181 -176.153 -74.5254 173.385
RightUpLeg  1.74842 -6.6371 -1.8528
RightLeg  9.00388 12.8977 0.3749
RightFoot  -7.06572 0.0783059 -3.37602
RightToes  -6.40286e-010 0 -3.6325e-017
Spine  -5.1321 1.06728 5.65074
Spine1  10.9426 1.90104 -3.02546
HEad  -24.2855 -34.3713 1.64804
LeftShoulder1  -0.27808 4.31233 -28.3341
LeftArm  -14.7437 5.29618 -33.6737
LeftForeArm  20.0345 -8.79549 -2.92225
LeftHand  0.0127183 7.80072 2.33767
RightShoulder  -0.504129 -5.0959 24.7061
RightArm  1.17613 12.3702 31.6402
RightForeArm  12.8414 5.05034 2.71054
RightHand  -0.0304738 6.51727 -0.618715
LeftUpLeg  1.9328 8.72779 5.18486
LeftLeg  6.90222 7.85261 0.534912
LeftFoot  -3.49054 0.157761 -1.96359
LeftToes  1.32783e-010 1.73515e-011 1.59258e-011
